PathFileType	4	(X/Y/Z)	s08c0303.trc
DataRate	CameraRate	NumFrames	NumMarkers	Units	OrigDataRate	OrigDataStartFrame	OrigNumFrames
200	200	4	50	mm	200	1000	2000
Frame#	Time	racr			lacr			c7			jug			rlel			rdr			llel			ldr			s2			lic			ric			lasi			rasi			rpsi			lpsi			rgt			lgt			rth1			rth2			rth3			rth4			rlfc			rmfc			rsh1			rsh2			rsh3			rsh4			rlmal			rmmal			rcal			rtoe			rmt5			lth1			lth2			lth4			lth3			llfc			lmfc			llmal			lmmal			lcal			lmt5			lsh1			lsh2			lsh3			lsh4			ltoe			SBIKE			LBIKE			RBIKE			
		X1	Y1	Z1	X2	Y2	Z2	X3	Y3	Z3	X4	Y4	Z4	X5	Y5	Z5	X6	Y6	Z6	X7	Y7	Z7	X8	Y8	Z8	X9	Y9	Z9	X10	Y10	Z10	X11	Y11	Z11	X12	Y12	Z12	X13	Y13	Z13	X14	Y14	Z14	X15	Y15	Z15	X16	Y16	Z16	X17	Y17	Z17	X18	Y18	Z18	X19	Y19	Z19	X20	Y20	Z20	X21	Y21	Z21	X22	Y22	Z22	X23	Y23	Z23	X24	Y24	Z24	X25	Y25	Z25	X26	Y26	Z26	X27	Y27	Z27	X28	Y28	Z28	X29	Y29	Z29	X30	Y30	Z30	X31	Y31	Z31	X32	Y32	Z32	X33	Y33	Z33	X34	Y34	Z34	X35	Y35	Z35	X36	Y36	Z36	X37	Y37	Z37	X38	Y38	Z38	X39	Y39	Z39	X40	Y40	Z40	X41	Y41	Z41	X42	Y42	Z42	X43	Y43	Z43	X44	Y44	Z44	X45	Y45	Z45	X46	Y46	Z46	X47	Y47	Z47	X48	Y48	Z48	X49	Y49	Z49	X50	Y50	Z50	
1000	5.0000	823.736590	1320.493861	-19.480631	831.444564	1355.598041	-339.241733	813.550785	1394.146718	-171.715917	759.557604	1243.625059	-190.555961	646.202086	1105.336366	84.250683	774.575211	899.017735	-45.928823	706.165874	1140.701535	-489.106013	789.341682	883.950217	-425.449921	238.083159	1267.532918	-273.211803	425.762799	1235.275735	-380.097606	356.236286	1241.505103	-73.289498	423.619633	1177.157555	-341.789629	383.148065	1185.835624	-114.968234	265.869427	1301.017612	-214.101065	286.380365	1305.793246	-309.240661	264.674495	1147.021463	-66.413534	354.986783	1125.273093	-432.168643	363.731881	1000.174376	-44.027450	429.419070	940.942335	-36.424993	456.958445	858.652435	-41.916040	460.503640	960.989429	-38.094622	519.463056	754.426499	-48.999104	514.569496	743.444374	-161.194571	441.311297	645.561341	-27.211507	430.687317	557.768831	-45.988964	378.066877	490.105530	-55.775829	460.237557	550.603111	-72.641116	325.860940	382.356765	-69.308809	349.513628	402.014479	-155.293364	243.420987	365.659544	-117.018910	536.857179	311.855446	-103.258796	441.025645	292.679200	-40.641678	403.847596	999.783759	-424.196200	451.977151	928.219182	-410.198270	480.906444	939.705698	-391.610629	460.161262	839.629304	-411.599955	461.000494	711.302890	-396.047105	441.686203	686.257416	-287.141333	111.643877	473.470413	-412.637151	143.703199	463.923914	-326.928076	62.053535	512.322585	-369.854331	115.654208	302.369573	-420.082067	357.994926	632.659273	-424.252804	300.883617	571.058872	-409.843432	218.224773	539.761251	-414.725332	313.700645	554.955124	-374.865276	182.536373	249.340844	-348.784931	-202.924368	919.153111	-228.667018	-12.691259	80.010268	-427.004393	-12.429960	79.836604	-28.636846	
1001	5.0050	825.873230	1318.907799	-20.826232	830.829285	1356.890607	-341.398563	814.029694	1394.693586	-173.017161	760.264006	1244.132835	-192.174769	648.505395	1105.236450	85.737667	774.703727	898.371840	-45.071889	706.618073	1141.167275	-490.461148	789.837359	883.420007	-426.054968	237.582924	1265.365306	-271.359530	425.336234	1235.279251	-378.979570	357.391404	1237.218975	-72.212709	423.560880	1176.810219	-340.719106	384.220819	1182.812141	-113.464071	265.873366	1298.405722	-211.897834	285.709135	1304.296956	-306.469592	264.817555	1142.675927	-66.407919	355.851326	1125.249534	-431.630518	361.881854	994.488773	-44.333242	425.854338	934.198102	-36.159749	453.465752	851.374563	-43.169039	457.908266	953.410494	-38.335791	514.017221	746.502978	-50.321677	508.275779	735.710770	-162.819061	437.072553	636.617818	-28.188101	427.816021	548.579148	-46.345900	376.009240	480.295182	-55.960753	457.711218	542.026542	-72.547722	324.638648	371.696464	-68.938008	348.224674	391.481233	-155.051938	242.262870	355.466903	-116.717975	535.759053	301.257140	-101.869685	439.641242	281.505941	-40.583183	406.582994	1000.011123	-423.485191	455.907151	929.569990	-409.072460	484.053106	941.525786	-389.612834	466.178357	841.310001	-411.065359	468.664993	713.803788	-394.397538	448.846888	688.686003	-285.676741	114.352422	484.021892	-412.357326	146.317637	473.796216	-326.529802	64.704001	523.095800	-369.851693	117.352570	313.074245	-420.053296	364.721625	637.252531	-422.713714	306.320701	578.380548	-410.438724	222.468650	547.753010	-413.970690	317.615231	559.606656	-372.221781	183.916900	259.611170	-348.792275	-202.531172	919.229698	-227.958559	-12.653249	80.019464	-426.969518	-12.413063	79.790028	-28.583350	
1002	5.0100	827.829601	1317.743507	-23.006777	830.166636	1358.357566	-344.024379	814.457076	1395.672585	-174.557388	760.640228	1245.156327	-193.901983	650.973912	1105.680871	87.422219	774.952844	897.822064	-44.119189	706.853143	1141.585078	-491.781841	789.442209	883.098654	-426.414047	237.344752	1263.557679	-268.969091	424.591743	1235.477965	-377.755840	359.002517	1233.085411	-70.824968	423.452912	1176.558933	-339.725600	385.477837	1179.618859	-111.900097	265.722544	1295.951809	-208.915124	285.088469	1302.954568	-303.627217	265.646635	1138.459704	-65.500602	356.273460	1125.468749	-431.065319	360.184595	988.606166	-44.666860	423.420513	926.778240	-37.564871	448.579549	843.774260	-44.531930	455.221038	945.770591	-39.353486	508.543065	738.839917	-51.850716	502.282337	727.484391	-164.276380	432.626979	627.874899	-29.047455	424.439130	539.818821	-46.922830	373.551778	470.688126	-56.315770	454.731632	532.688380	-74.120574	322.937818	361.502587	-68.590236	346.776722	381.792332	-154.307929	240.564467	345.592745	-116.443012	533.547691	288.209817	-103.419319	437.564430	270.582500	-40.546974	409.204783	1000.614930	-423.329977	459.860746	931.211734	-408.016103	487.313624	943.804321	-387.755463	472.346988	843.170023	-410.291101	476.504075	716.606128	-392.532585	456.085682	691.410376	-284.158718	117.455326	494.562113	-411.935256	149.387560	483.653361	-326.119037	67.740583	533.923100	-369.579020	119.826674	323.705769	-420.028067	371.418121	642.101251	-421.155951	311.492440	584.295747	-408.976747	227.180959	555.744995	-413.076162	322.214708	565.241062	-370.636661	186.221235	270.100265	-348.778550	-202.518648	919.376324	-227.634790	-12.639279	80.035605	-426.883002	-12.394840	79.768109	-28.534835	
1003	5.0150	829.930926	1317.411113	-25.233517	829.185979	1359.965707	-346.761356	814.753838	1397.026306	-176.295970	761.095977	1246.439540	-195.514990	654.817010	1106.186443	88.702444	775.372244	897.269790	-43.098799	705.880529	1142.311101	-494.329068	789.424070	882.696670	-426.130881	236.974282	1262.100850	-265.491501	423.671524	1235.621137	-376.577094	361.081550	1229.077501	-69.297372	423.186265	1176.376091	-338.901130	386.926090	1176.259093	-110.288836	265.751244	1293.381676	-205.515106	284.423121	1301.613154	-300.217218	266.657542	1133.954187	-64.711386	356.359707	1125.877403	-430.203064	358.639338	982.664079	-44.951994	420.326879	919.629838	-38.233247	444.213473	836.154012	-46.095049	452.883424	938.040240	-39.421347	502.513066	730.669314	-53.653082	495.844431	719.330171	-165.425358	427.817506	619.201471	-29.865490	420.581673	530.745865	-47.926614	370.433053	461.325080	-56.675547	450.866125	524.563331	-74.276054	320.661893	351.606487	-68.162124	0.000000	0.000000	-0.000000	238.348037	336.156843	-116.127722	530.931804	276.864396	-103.552953	434.912283	259.689374	-40.587888	411.735251	1001.388080	-423.178350	463.845246	933.294734	-406.926005	490.678590	946.489971	-386.263023	478.447932	845.455620	-408.869438	484.580319	719.864878	-390.586816	463.393293	694.433674	-282.613720	121.076648	505.020056	-411.278088	152.918762	493.585758	-325.495739	71.095584	544.497443	-369.219943	122.833099	334.272703	-419.955878	378.453880	646.902180	-419.456244	326.484529	596.528326	-416.887091	232.246533	563.765385	-411.924703	327.010472	571.137056	-368.805843	189.122782	280.499442	-348.624494	-202.379639	919.315757	-227.300938	-12.642852	80.130975	-426.780848	-12.368744	79.779110	-28.450766	
